<?xml version="1.0" encoding="iso-8859-1"?>
<!-- Generator: Adobe Illustrator 19.0.0, SVG Export Plug-In . SVG Version: 6.00 Build 0)  -->
<svg version="1.1" id="Layer_1" xmlns="http://www.w3.org/2000/svg" xmlns:xlink="http://www.w3.org/1999/xlink" x="0px" y="0px"
	 viewBox="0 0 511.998 511.998" style="enable-background:new 0 0 511.998 511.998;" xml:space="preserve">
<path style="fill:#E7ECED;" d="M255.997,210.992c31.056,0,56.261,25.205,56.261,56.261c0,20.817-11.364,38.707-28.13,48.497v120.285
	h-56.262V315.749c-16.766-9.789-28.13-27.68-28.13-48.497C199.737,236.197,224.941,210.992,255.997,210.992z"/>
<path style="fill:#FFD248;" d="M362.329,178.135C407,210.878,436.03,263.764,436.03,323.512
	c0,99.468-80.565,180.033-180.033,180.033S75.963,422.982,75.963,323.513c0-59.749,29.03-112.634,73.701-145.377
	c29.818-21.829,66.613-34.656,106.332-34.656S332.512,156.306,362.329,178.135z M312.258,267.253
	c0-31.056-25.205-56.261-56.261-56.261s-56.261,25.205-56.261,56.261c0,20.817,11.364,38.707,28.13,48.497v120.285h56.261V315.749
	C300.892,305.96,312.258,288.068,312.258,267.253z"/>
<path d="M423.439,236.808c-12.545-24.211-30.496-45.708-52.092-62.453V19.705C371.346,8.839,362.506,0,351.641,0H160.354
	c-10.866,0-19.705,8.84-19.705,19.705v154.648c-21.595,16.745-39.547,38.243-52.091,62.453
	c-13.77,26.573-21.047,56.555-21.047,86.704c0,103.932,84.555,188.487,188.487,188.487s188.488-84.555,188.488-188.487
	C444.484,293.362,437.206,263.381,423.439,236.808z M160.354,16.908h191.287c1.517,0,2.798,1.282,2.798,2.798v142.963
	c-29.54-18.128-63.268-27.643-98.442-27.643c-35.172,0-68.9,9.514-98.44,27.644V19.705
	C157.556,18.189,158.837,16.908,160.354,16.908z M255.997,495.092c-94.609,0-171.579-76.97-171.579-171.579
	c0-27.847,6.443-54.402,19.151-78.926c12.124-23.398,29.792-44.018,51.09-59.63c29.512-21.604,64.554-33.024,101.338-33.024
	c36.783,0,71.825,11.419,101.335,33.021c21.301,15.615,38.97,36.235,51.094,59.633c12.707,24.525,19.151,51.079,19.151,78.926
	C427.577,418.122,350.606,495.092,255.997,495.092z"/>
<path d="M255.997,202.538c-35.683,0-64.714,29.03-64.714,64.714c0,21.478,10.426,41.003,28.131,53.142v124.093h73.168V320.394
	c17.703-12.14,28.13-31.665,28.13-53.142C320.712,231.569,291.68,202.538,255.997,202.538z M279.865,308.448l-4.192,2.447V427.58
	H236.32V310.896l-4.191-2.447c-14.99-8.751-23.939-24.152-23.939-41.196c0-26.361,21.446-47.807,47.807-47.807
	s47.807,21.446,47.807,47.807C303.804,284.295,294.854,299.696,279.865,308.448z"/>
<rect x="233.491" y="258.799" width="45.009" height="16.908"/>
<g>
</g>
<g>
</g>
<g>
</g>
<g>
</g>
<g>
</g>
<g>
</g>
<g>
</g>
<g>
</g>
<g>
</g>
<g>
</g>
<g>
</g>
<g>
</g>
<g>
</g>
<g>
</g>
<g>
</g>
</svg>
