<svg
      xmlns="http://www.w3.org/2000/svg"
      version="1.1"
      width="51"
      height="51"
      viewBox="0 0 500 500"
      fill="currentColor"
    >
      <defs />
      <g
        transform="matrix(1.39 0 0 1.39 99.22 402.46)"
        id="Oa4wYVgn50hNIEmuW090P"
      >
        <path
          vector-effect="non-scaling-stroke"
          transform=" translate(0, 0)"
          d="M -37.3358 -60.12099 L 60.44198000000001 38.212340000000005 C 60.44198000000001 38.212340000000005 9.886420000000008 85.99012 -37.3358 40.434560000000005 C -84.55802 -5.120999999999995 -46.224689999999995 -54.009879999999995 -37.3358 -60.120999999999995"
          stroke-linecap="round"
        />
      </g>
      <g
        transform="matrix(1.39 0 0 1.39 276.17 229.21)"
        id="0Gxv1M2usA9BUGEKcjIfu"
      >
        <path
          vector-effect="non-scaling-stroke"
          transform=" translate(0, 0)"
          d="M -149.32863 51.36291 L -124.40749 24.66493 C -124.40749 24.66493 -57.84598 -116.77590000000001 -51.22136999999999 -131.60239 C -44.596759999999996 -146.42889000000002 -37.02578999999999 -148.95255 -29.139349999999993 -148.95255 C -21.252909999999993 -148.95255 -12.735559999999992 -149.26801 -0.11726999999999421 -148.95255 C 12.501030000000005 -148.63709 23.226580000000006 -145.48252 22.911120000000007 -131.60239 C 22.595660000000006 -117.72226000000002 22.911120000000007 -118.52469000000002 22.911120000000007 -118.52469000000002 C 22.911120000000007 -118.52469000000002 1.758020000000009 -119.27459000000002 -7.221569999999993 -111.92765000000003 C -16.201159999999994 -104.58071000000002 -20.895039999999995 -98.45826000000002 -26.201159999999994 -80.90724000000003 C -31.507279999999994 -63.35622000000003 -42.935849999999995 -28.254180000000026 -42.935849999999995 -28.254180000000026 L -72.73177 -11.519490000000026 L -96.20116 38.480509999999974 L -79.26238000000001 56.23560999999997 L -32.93585000000001 11.13356999999997 C -32.93585000000001 11.13356999999997 -9.05830000000001 -65.19296000000003 -4.976670000000009 -78.45827000000003 C -0.8950400000000096 -91.72358000000003 4.411089999999991 -97.02970000000002 16.24781999999999 -97.23378000000002 C 28.08454999999999 -97.43786000000003 58.49271999999999 -97.43786000000003 75.22740999999999 -97.23378000000002 C 91.96209999999999 -97.02970000000002 97.67639 -87.43786000000003 96.24781999999999 -74.58072000000003 C 94.81925 -61.72358000000003 96.24781999999999 -29.274600000000028 96.24781999999999 -15.601130000000026 C 96.24781999999999 -1.9276600000000261 84.61516999999999 2.358049999999974 75.22740999999999 4.807029999999973 C 65.83964999999999 7.256009999999973 -10.690960000000004 31.745809999999974 -10.690960000000004 31.745809999999974 L -56.813410000000005 77.66417999999997 L -40.28280000000001 95.01111999999998 C -40.28280000000001 95.01111999999998 11.962099999999992 71.33764999999998 11.34984999999999 71.54172999999997 C 10.73760999999999 71.74580999999998 27.67637999999999 41.94988999999997 27.67637999999999 41.94988999999997 C 27.67637999999999 41.94988999999997 52.37025999999999 35.68533999999997 82.57433999999999 24.664929999999966 C 112.77842 13.644519999999966 118.08453999999999 1.7458099999999668 117.06414 -23.968470000000035 C 119.30904 -23.968470000000035 121.55394 -23.968470000000035 126.65598 -23.968470000000035 C 143.79883999999998 -24.172550000000037 149.7172 -14.784800000000036 149.30904 -2.743980000000036 C 148.90088 9.296839999999964 149.10496 16.847859999999965 149.30904 29.29683999999996 C 149.51312000000001 41.74581999999996 142.77843000000001 44.19479999999996 135.02333000000002 47.86826999999996 C 127.26823000000002 51.54173999999996 -26.201159999999987 122.97030999999996 -26.201159999999987 122.97030999999996 L -51.221369999999986 149.09275999999994 z"
          stroke-linecap="round"
        />
      </g>
</svg>
